<svg width="29" height="15" viewBox="0 0 29 15" fill="none" xmlns="http://www.w3.org/2000/svg">
<path d="M14.376 7.592C14.376 3.44 11.448 0.896 7.656 0.896C3.72 0.896 0.768 3.68 0.768 7.544C0.768 11.384 3.672 14.192 8.136 14.192C10.464 14.192 12.264 13.472 13.464 12.104L11.472 9.944C10.584 10.784 9.6 11.192 8.232 11.192C6.264 11.192 4.896 10.208 4.536 8.6H14.304C14.328 8.288 14.376 7.88 14.376 7.592ZM7.68 3.728C9.36 3.728 10.584 4.784 10.848 6.416H4.488C4.752 4.76 5.976 3.728 7.68 3.728ZM28.9731 14L23.9811 7.4L28.7811 1.088H24.7971L21.9891 4.856L19.2531 1.088H15.0531L19.8531 7.496L14.8851 14H18.9651L21.8931 10.04L24.7251 14H28.9731Z" fill="#00ADB5"/>
</svg>
